<svg xmlns="http://www.w3.org/2000/svg" width="1200" height="630" viewBox="0 0 1200 630">
  <defs>
    <linearGradient id="v" x1="0" y1="0" x2="1" y2="1">
      <stop offset="0" stop-color="#c4b5fd"/><stop offset="0.55" stop-color="#8b5cf6"/><stop offset="1" stop-color="#6d4ce0"/>
    </linearGradient>
    <linearGradient id="title" x1="0" y1="0" x2="1" y2="0">
      <stop offset="0" stop-color="#ffffff"/><stop offset="0.5" stop-color="#e9e2ff"/><stop offset="1" stop-color="#b79bff"/>
    </linearGradient>
    <radialGradient id="glow" cx="0.82" cy="0.12" r="0.7">
      <stop offset="0" stop-color="#7c4ff0" stop-opacity="0.55"/><stop offset="1" stop-color="#7c4ff0" stop-opacity="0"/>
    </radialGradient>
  </defs>
  <rect width="1200" height="630" fill="#0c0c13"/>
  <rect width="1200" height="630" fill="url(#glow)"/>
  <rect x="0" y="0" width="1200" height="6" fill="url(#v)"/>
  <!-- logo mark -->
  <rect x="80" y="78" width="92" height="92" rx="22" fill="url(#v)"/>
  <rect x="104" y="118" width="11" height="30" rx="5.5" fill="#fff"/>
  <rect x="121" y="104" width="11" height="44" rx="5.5" fill="#fff"/>
  <rect x="138" y="112" width="11" height="36" rx="5.5" fill="#fff"/>
  <text x="196" y="118" font-family="DejaVu Sans Mono" font-size="26" letter-spacing="6" fill="#a78bfa">DACHER FORGE</text>
  <text x="196" y="150" font-family="DejaVu Sans" font-size="20" letter-spacing="2" fill="#7d7d8c">AI SDR PLATFORM</text>
  <text x="80" y="330" font-family="DejaVu Sans" font-weight="bold" font-size="110" fill="url(#title)">Scaramouche</text>
  <rect x="84" y="358" width="240" height="7" rx="3.5" fill="url(#v)"/>
  <text x="80" y="430" font-family="DejaVu Sans" font-weight="bold" font-size="46" fill="#e9e6f5">Автономный AI SDR-агент</text>
  <text x="80" y="492" font-family="DejaVu Sans" font-size="29" fill="#b9b6c8">Находит и квалифицирует лидов · назначает встречи —</text>
  <text x="80" y="532" font-family="DejaVu Sans" font-size="29" fill="#b9b6c8">на автопилоте. Замена SDR-отдела в B2B.</text>
  <text x="80" y="590" font-family="DejaVu Sans Mono" font-size="22" fill="#6f6c82">scaramouche · dacherforge.ai</text>
</svg>